<?xml version="1.0" standalone="no"?>
<!DOCTYPE svg PUBLIC "-//W3C//DTD SVG 20010904//EN"
 "http://www.w3.org/TR/2001/REC-SVG-20010904/DTD/svg10.dtd">
<svg version="1.0" xmlns="http://www.w3.org/2000/svg"
 width="310.000000pt" height="310.000000pt" viewBox="0 0 310.000000 310.000000"
 preserveAspectRatio="xMidYMid meet">
<metadata>
Created by potrace 1.11, written by Peter Selinger 2001-2013
</metadata>
<g transform="translate(0.000000,310.000000) scale(0.100000,-0.100000)"
fill="#000000" stroke="none">
<path d="M712 1958 c-16 -16 -16 -190 0 -206 8 -8 59 -12 165 -12 l153 0 0
-224 c0 -218 -6 -271 -33 -288 -40 -25 -156 9 -223 65 -29 25 -32 25 -46 9
-31 -37 -108 -151 -108 -160 0 -14 87 -89 137 -119 115 -67 291 -69 395 -5 52
32 105 92 130 147 22 49 23 59 26 413 2 269 0 367 -9 378 -16 19 -568 21 -587
2z"/>
<path d="M1452 1958 c-17 -17 -17 -949 0 -966 17 -17 249 -17 266 0 8 8 12 64
12 185 l0 173 175 0 175 0 0 -173 c0 -121 4 -177 12 -185 17 -17 239 -17 256
0 17 17 17 949 0 966 -17 17 -239 17 -256 0 -8 -8 -12 -66 -12 -195 l0 -183
-175 0 -175 0 0 183 c0 129 -4 187 -12 195 -8 8 -52 12 -133 12 -81 0 -125 -4
-133 -12z"/>
</g>
</svg>
